<svg width="25" height="30" viewBox="0 0 25 30" fill="none" xmlns="http://www.w3.org/2000/svg">
<path d="M13.8889 0C12.934 0 12.1166 0.282452 11.4366 0.847356C10.7567 1.41226 10.4167 2.09135 10.4167 2.88462C10.4167 3.67788 10.7567 4.35697 11.4366 4.92188C12.1166 5.48678 12.934 5.76923 13.8889 5.76923C14.8437 5.76923 15.6612 5.48678 16.3411 4.92188C17.0211 4.35697 17.3611 3.67788 17.3611 2.88462C17.3611 2.09135 17.0211 1.41226 16.3411 0.847356C15.6612 0.282452 14.8437 0 13.8889 0ZM5.96788 29.1346L9.63542 24.1406C10.0405 23.5877 10.3443 23.0349 10.5469 22.482L11.8056 19.0204L15.6033 22.3197L18.9236 28.9363C19.0828 29.2608 19.3323 29.5192 19.6723 29.7115C20.0123 29.9038 20.3993 30 20.8333 30C21.412 30 21.9039 29.8317 22.309 29.4952C22.7141 29.1587 22.9167 28.75 22.9167 28.2692C22.9167 28.0649 22.866 27.8486 22.7648 27.6202L19.7266 21.4002C19.5385 21.0036 19.3902 20.7362 19.2817 20.598C19.1732 20.4597 18.9308 20.2224 18.5547 19.8858L14.2795 16.0637L15.5816 10.9796L16.7969 12.9447C17.0284 13.3534 17.3466 13.6478 17.7517 13.8281C17.8385 13.8642 19.3359 14.4952 22.2439 15.7212C22.9384 16.0096 23.3941 16.1538 23.6111 16.1538C24.0162 16.1538 24.349 16.0457 24.6094 15.8293C24.8698 15.613 25 15.3365 25 15C25 14.5072 24.7251 14.1406 24.1753 13.9002L19.2057 11.7007L17.2526 7.98678C16.8909 7.32572 16.4135 6.96514 15.8203 6.90505L10.8507 6.4363C10.3877 6.40024 9.76562 6.51442 8.98438 6.77885L3.73264 8.50961C3.44329 8.60577 3.16117 8.76803 2.88628 8.99639C2.6114 9.22476 2.43056 9.45913 2.34375 9.69952C1.20081 12.1514 0.448495 13.7861 0.0868056 14.6034C0.0289352 14.7115 0 14.8438 0 15C0 15.3125 0.137442 15.5829 0.412326 15.8113C0.687211 16.0397 1.01273 16.1538 1.38889 16.1538C1.67824 16.1538 1.97121 16.0968 2.2678 15.9826C2.56438 15.8684 2.75608 15.7212 2.84288 15.5409L5.05642 10.7091L9.61372 9.28486L6.42361 21.6707L2.34375 27.4399C2.17014 27.7163 2.08333 27.9928 2.08333 28.2692C2.08333 28.75 2.28588 29.1587 2.69097 29.4952C3.09606 29.8317 3.58796 30 4.16667 30C4.94792 30 5.54832 29.7115 5.96788 29.1346Z" fill="#FFD37E"/>
</svg>
