<svg width="30" height="30" viewBox="0 0 30 30" fill="none" xmlns="http://www.w3.org/2000/svg">
<path d="M14.6538 22.4275C14.8132 22.5815 14.9404 22.7657 15.0279 22.9694C15.1154 23.1731 15.1614 23.3921 15.1633 23.6138C15.1653 23.8354 15.123 24.0552 15.0391 24.2604C14.9552 24.4656 14.8312 24.6519 14.6745 24.8087C14.5177 24.9654 14.3314 25.0894 14.1262 25.1733C13.921 25.2572 13.7012 25.2995 13.4796 25.2976C13.2579 25.2956 13.0389 25.2496 12.8352 25.1621C12.6315 25.0746 12.4473 24.9474 12.2933 24.788L9.9329 22.4275L5.21201 27.1501C5.52502 27.4633 5.70079 27.8881 5.70063 28.3309C5.70047 28.7737 5.52441 29.1984 5.21117 29.5114C4.89794 29.8244 4.47319 30.0002 4.03036 30C3.58754 29.9998 3.16291 29.8238 2.8499 29.5105L0.489454 27.1501C0.176219 26.8371 0.000156631 26.4125 1.04457e-07 25.9696C-0.000156422 25.5268 0.175605 25.1021 0.48862 24.7888C0.801634 24.4756 1.22626 24.2995 1.66909 24.2994C2.11191 24.2992 2.53666 24.475 2.8499 24.788L7.57245 20.0671L5.21201 17.7067C4.90793 17.3918 4.73967 16.9701 4.74347 16.5324C4.74727 16.0948 4.92284 15.6761 5.23234 15.3666C5.54185 15.057 5.96054 14.8815 6.39824 14.8777C6.83593 14.8739 7.25761 15.0421 7.57245 15.3462L14.6538 22.4275ZM15.8357 21.2473L8.751 14.1643L22.917 0L28.8198 1.18022L30 7.083L15.8357 21.2473Z" fill="#FFD37E"/>
</svg>
